<svg xmlns="http://www.w3.org/2000/svg" width="65" height="65" viewBox="0 0 65 65">
  <g id="Group_44254" data-name="Group 44254" transform="translate(2955 2545)">
    <rect id="Rectangle_5327" data-name="Rectangle 5327" width="65" height="65" rx="5" transform="translate(-2955 -2545)" fill="#b3e8ca"/>
    <g id="Group_43974" data-name="Group 43974" transform="translate(-3829 -4815.457)">
      <path id="Path_24506" data-name="Path 24506" d="M38.59,51.821A22.229,22.229,0,0,0,19.327,40.7,22.15,22.15,0,0,0,8.054,43.776a22.4,22.4,0,0,0-7.99,8.044.638.638,0,0,0,0,.652,22.428,22.428,0,0,0,7.99,8.055A22.24,22.24,0,0,0,38.59,52.473.638.638,0,0,0,38.59,51.821Z" transform="translate(887.025 2251.224)" fill="#4bd587"/>
      <path id="Path_24507" data-name="Path 24507" d="M38.59,51.821A22.229,22.229,0,0,0,19.327,40.7,22.15,22.15,0,0,0,8.054,43.776a22.4,22.4,0,0,0-7.99,8.044.638.638,0,0,0,0,.652,22.428,22.428,0,0,0,7.99,8.055A22.24,22.24,0,0,0,38.59,52.473.638.638,0,0,0,38.59,51.821Zm-8.642,7.588A20.945,20.945,0,0,1,1.391,52.147a20.935,20.935,0,0,1,35.873,0A20.983,20.983,0,0,1,29.948,59.408Z" transform="translate(887.025 2251.224)" fill="#3b4157"/>
      <path id="Path_24510" data-name="Path 24510" d="M86.07,36.72a12.268,12.268,0,1,0,0,17.349A12.262,12.262,0,0,0,86.07,36.72Z" transform="translate(828.957 2257.976)" fill="#b3e8ca"/>
      <path id="Path_24511" data-name="Path 24511" d="M119.227,79.064a8.164,8.164,0,1,1-8.164-8.164A8.16,8.16,0,0,1,119.227,79.064Z" transform="translate(795.288 2224.307)" fill="#4bd587"/>
      <path id="Path_24512" data-name="Path 24512" d="M72.025,27.2A12.92,12.92,0,1,0,84.95,40.114,12.939,12.939,0,0,0,72.025,27.2Zm0,24.535a11.615,11.615,0,1,1,11.621-11.61A11.633,11.633,0,0,1,72.025,51.735Z" transform="translate(834.327 2263.257)" fill="#3b4157"/>
      <path id="Path_24513" data-name="Path 24513" d="M105.716,64.9a8.816,8.816,0,1,0,8.816,8.816A8.829,8.829,0,0,0,105.716,64.9Zm0,16.338a7.512,7.512,0,1,1,7.512-7.512A7.52,7.52,0,0,1,105.716,81.238Z" transform="translate(800.636 2229.655)" fill="#3b4157"/>
      <path id="Path_24514" data-name="Path 24514" d="M172.652,27.2a.654.654,0,0,0-.652.652v4.109a.652.652,0,0,0,1.3,0V27.852A.654.654,0,0,0,172.652,27.2Z" transform="translate(733.7 2263.257)" fill="#3b4157"/>
      <path id="Path_24515" data-name="Path 24515" d="M229.189,60.463a.663.663,0,0,0-.924,0l-2.9,2.9a.663.663,0,0,0,0,.924.644.644,0,0,0,.457.2.626.626,0,0,0,.457-.2l2.9-2.9A.653.653,0,0,0,229.189,60.463Z" transform="translate(686.305 2233.777)" fill="#3b4157"/>
      <path id="Path_24516" data-name="Path 24516" d="M251.861,140h-4.109a.652.652,0,1,0,0,1.3h4.109a.652.652,0,0,0,0-1.3Z" transform="translate(666.764 2162.719)" fill="#3b4157"/>
    </g>
  </g>
</svg>
