<svg xmlns="http://www.w3.org/2000/svg" width="65" height="65" viewBox="0 0 65 65">
  <g id="Group_44249" data-name="Group 44249" transform="translate(2933 3308)">
    <rect id="Rectangle_5494" data-name="Rectangle 5494" width="65" height="65" rx="5" transform="translate(-2933 -3308)" fill="#c5e1fb"/>
    <g id="Group_44206" data-name="Group 44206" transform="translate(-3801 -4880)">
      <path id="Path_29210" data-name="Path 29210" d="M-10886.351-187.655h0v.271s1.843-.536,1.978-.609c-.123.068-.815-.093,1.243-.305a13.289,13.289,0,0,1,6.669,1.07c5.009,2.248,6.186,7.888,6.4,9.934a7.262,7.262,0,0,1,0,2.647l3.019,4.509s1.455,1.716-.387,1.976a6.527,6.527,0,0,1-2.632,0v2.006s.429,3.595-1.85,5.438-7.387,1.088-7.387,1.088l-.5.1v7.791h-9.646v-9.946a4.2,4.2,0,0,1-3.994-4.065c.015-4.065.1-6.788.1-6.788v-5.57a13.616,13.616,0,0,1,3.492-7.132" transform="translate(11782 1774)" fill="#4da6f8"/>
      <g id="Group_40415" data-name="Group 40415" transform="translate(888 1585)">
        <g id="Group_40413" data-name="Group 40413" transform="translate(0)">
          <path id="Path_24451" data-name="Path 24451" d="M29.258,17.632v2l3.41,5.078a.92.92,0,0,1-.765,1.434H29.258v3.506A5.15,5.15,0,0,1,24.107,34.8H19.613v7.85H9.978V32.684h0a3.974,3.974,0,0,1-3.973-3.973V17.632a11.627,11.627,0,1,1,23.253,0Z" transform="translate(-5.358 -4.834)" fill="none"/>
          <path id="Path_24460" data-name="Path 24460" d="M4.563,37.923H14.2a.639.639,0,0,0,.637-.637v-7.2h3.856a5.8,5.8,0,0,0,5.789-5.789V21.426h2.008A1.575,1.575,0,0,0,27.87,20.6a1.532,1.532,0,0,0-.085-1.6l-3.3-4.918v-1.8A12.269,12.269,0,1,0-.057,12.269v11.08a4.616,4.616,0,0,0,3.973,4.568v9.369A.656.656,0,0,0,4.563,37.923Zm9-1.275H5.2V27.322a.639.639,0,0,0-.637-.637,3.334,3.334,0,0,1-3.336-3.336V12.269a10.989,10.989,0,1,1,21.978,0v2a.65.65,0,0,0,.106.351l3.41,5.078a.273.273,0,0,1,.011.3.288.288,0,0,1-.255.149H23.833a.639.639,0,0,0-.637.637v3.506A4.524,4.524,0,0,1,18.681,28.8H14.188a.639.639,0,0,0-.637.637v7.213ZM23.844,14.266Z" transform="translate(0.057)" fill="#3b4157"/>
        </g>
        <path id="Path_24986" data-name="Path 24986" d="M11.962,5.971a6.643,6.643,0,0,1-8.678,3.6A5.314,5.314,0,0,1,.405,2.627,4.252,4.252,0,0,1,5.959.324,3.4,3.4,0,0,1,7.8,4.768,2.721,2.721,0,0,1,4.247,6.242,2.177,2.177,0,0,1,3.068,3.4a1.741,1.741,0,0,1,2.275-.943A1.393,1.393,0,0,1,6.1,4.274a1.114,1.114,0,0,1-1.456.6.891.891,0,0,1-.483-1.165" transform="translate(15.711 17.751) rotate(-158)" fill="none" stroke="#3b4157" stroke-linecap="round" stroke-miterlimit="10" stroke-width="1.5"/>
      </g>
    </g>
  </g>
</svg>
