<svg xmlns="http://www.w3.org/2000/svg" width="65" height="65" viewBox="0 0 65 65">
  <g id="Group_44251" data-name="Group 44251" transform="translate(3237 2958)">
    <rect id="Rectangle_5486" data-name="Rectangle 5486" width="65" height="65" rx="5" transform="translate(-3237 -2958)" fill="#fee2ba"/>
    <path id="Path_29853" data-name="Path 29853" d="M-11192.905,174.24c.923-.276.99-.523,1.683-1.244-.125-.211-1.479-2.785-1.479-2.785s-1.095-.623-1.257-1.131-.459-1.98,0-2.217,2.239-.377,2.453,0a10.961,10.961,0,0,1,.6,1.721,32.743,32.743,0,0,0,1.87,3.19l1.8-.505.7-2.685a12.976,12.976,0,0,1-.461-2.172c-.022-.685.524-1.994,1.287-1.919s2.061.57,1.865,1.532-.444,2.116-.444,2.116l.444,3.127,1.689.505,2.188-3.19s-.241-1.155.166-1.461,1.809-1.162,2.141-.71,1.2,1.8,1.037,2.172-.526,1.11-1.037,1.248S-11179.8,173-11179.8,173l1.521,1.548,3.264-1.548a3.829,3.829,0,0,0,.95-.825c.3-.424,1.358-1.1,1.9-.244a5.117,5.117,0,0,1,.658,1.873l-.933,1.147h-1.064l-2.949,2.037.349,2.062,2.6.2a16.068,16.068,0,0,0,2-.39,1.547,1.547,0,0,1,1.763.817c.142.4.22,2.08-.545,2.26a2.713,2.713,0,0,1-2.15-.154c-.445-.39-3.665,0-3.665,0l-.514,1.941,2.205,1.854a1.414,1.414,0,0,0,1.111.4,1.764,1.764,0,0,1,1.5.6c.156.276.464,1.817,0,2.085s-1.8,1.082-2.614,0-.978-1.315-1.691-1.526-2.171-.707-2.171-.707l-1.362,1.174.838,1.9s.718,1.981,1.145,2.076a1.831,1.831,0,0,1,1.037,1.471c-.087.46-1.377,2.089-2.666,1.168a1.5,1.5,0,0,1-.678-1.979l-2.188-3.2-1.989.731s-.289,3.294-.289,3.284-.176-.264.289.746-.268,2.831-1.219,2.755a1.616,1.616,0,0,1-1.634-1.231c-.108-.642.48-1.193.461-1.986s-.461-3.569-.461-3.569l-1.867-.731-2.038,3.2-.316,1.557s-1.524,1.056-1.942.725-1.668-1.221-1.355-1.707a7.526,7.526,0,0,1,1.355-1.715,21.589,21.589,0,0,0,1.659-3.306l-1.2-1.362-3.514,1.362s-.239,1.164-1.018,1.39-2.591-.217-2.365-1.19.323-2.088,1.6-2.012,3.684-2.254,3.684-2.254l-.467-1.788-3.535-.426-1.285.566-1.435-.14s-.968-2.057-.315-2.416,1.84-.927,2.716-.271,3.854-.39,3.854-.39l.467-1.868-2.922-2.037-1.686-.4s-.882-.733-.535-1.548,1.626-1.991,2.438-1.069a12.625,12.625,0,0,0,1.763,1.621S-11193.828,174.516-11192.905,174.24Z" transform="translate(7981 -3106)" fill="#fdb44d"/>
    <g id="Page-1" transform="translate(-3221.004 -2942.003)">
      <g id="_002---Virus" data-name="002---Virus" transform="translate(0.004 0.003)">
        <path id="Shape" d="M24.75,24.5A2.75,2.75,0,1,0,22,21.75,2.75,2.75,0,0,0,24.75,24.5Zm0-4.4a1.65,1.65,0,1,1-1.65,1.65A1.65,1.65,0,0,1,24.75,20.1Z" transform="translate(-9.903 -8.552)" fill="#3b4157"/>
        <path id="Shape-2" data-name="Shape" d="M36.65,27.3A1.65,1.65,0,1,0,35,25.65,1.65,1.65,0,0,0,36.65,27.3Zm0-2.2a.55.55,0,1,1-.55.55A.55.55,0,0,1,36.65,25.1Z" transform="translate(-15.753 -10.802)" fill="#3b4157"/>
        <path id="Shape-3" data-name="Shape" d="M17.65,32.3A1.65,1.65,0,1,0,16,30.65,1.65,1.65,0,0,0,17.65,32.3Zm0-2.2a.55.55,0,1,1-.55.55A.55.55,0,0,1,17.65,30.1Z" transform="translate(-7.203 -13.052)" fill="#3b4157"/>
        <path id="Shape-4" data-name="Shape" d="M25,34.3A3.3,3.3,0,1,0,28.3,31,3.3,3.3,0,0,0,25,34.3Zm5.5,0a2.2,2.2,0,1,1-2.2-2.2A2.2,2.2,0,0,1,30.5,34.3Z" transform="translate(-11.253 -13.952)" fill="#3b4157"/>
        <path id="Shape-5" data-name="Shape" d="M2.2,18.7a2.17,2.17,0,0,0,1.155-.33.973.973,0,0,1,.559-.184c.705.037,1.752.115,2.888.275a9.565,9.565,0,0,0,.315,1.188c-.95.744-1.829,1.338-2.4,1.7a.809.809,0,0,1-.478.1,2.23,2.23,0,0,0-1.568.537,2.2,2.2,0,0,0,2.536,3.569,2.164,2.164,0,0,0,.847-.87.977.977,0,0,1,.385-.432c.538-.275,1.892-.869,2.653-1.192a9.759,9.759,0,0,0,.861.848c-.47,1.169-.964,2.168-1.234,2.688a.766.766,0,0,1-.361.317,2.2,2.2,0,1,0,3.19,1.9.99.99,0,0,1,.12-.576c.385-.594.978-1.463,1.686-2.369a9.613,9.613,0,0,0,1.171.32c.076.674.257,2.31.287,2.941a.774.774,0,0,1-.149.451,2.207,2.207,0,0,0,1.467,3.385A2.29,2.29,0,0,0,16.5,33a2.195,2.195,0,0,0,2.2-2.2,2.168,2.168,0,0,0-.338-1.171.938.938,0,0,1-.174-.539c.037-.706.113-1.751.275-2.888a9.742,9.742,0,0,0,1.186-.324c.779.994,1.395,1.919,1.71,2.412a.77.77,0,0,1,.094.471,2.207,2.207,0,0,0,2.21,2.325,2.145,2.145,0,0,0,.753-.135,2.2,2.2,0,0,0,1.14-3.164,2.163,2.163,0,0,0-.861-.838.99.99,0,0,1-.44-.393c-.321-.63-.778-1.576-1.21-2.645a9.707,9.707,0,0,0,.861-.854c1.32.573,2.3,1.017,2.689,1.222a.77.77,0,0,1,.321.364,2.2,2.2,0,1,0,3.066-2.9,2.175,2.175,0,0,0-1.192-.291.9.9,0,0,1-.542-.118c-.843-.545-1.639-1.11-2.361-1.687a9.625,9.625,0,0,0,.31-1.184c1.248-.177,2.356-.248,2.94-.275a.759.759,0,0,1,.454.154A2.2,2.2,0,1,0,30.8,14.3a2.168,2.168,0,0,0-1.155.33,1.011,1.011,0,0,1-.559.184c-.705-.037-1.752-.114-2.888-.275a9.549,9.549,0,0,0-.315-1.188c.949-.743,1.828-1.338,2.4-1.7a.8.8,0,0,1,.477-.1,2.216,2.216,0,0,0,1.567-.538,2.2,2.2,0,1,0-3.383-2.7.977.977,0,0,1-.385.432c-.538.275-1.892.869-2.653,1.192a9.76,9.76,0,0,0-.859-.848c.47-1.169.964-2.168,1.234-2.688a.77.77,0,0,1,.361-.317,2.2,2.2,0,1,0-2.9-3.066,2.169,2.169,0,0,0-.294,1.163.99.99,0,0,1-.12.576c-.385.594-.977,1.463-1.686,2.368a9.714,9.714,0,0,0-1.171-.32c-.076-.676-.258-2.317-.287-2.944a.758.758,0,0,1,.147-.444A2.2,2.2,0,1,0,14.3,2.2a2.172,2.172,0,0,0,.337,1.169.943.943,0,0,1,.175.542c-.031.6-.193,2.071-.294,2.891a9.559,9.559,0,0,0-1.165.32c-.778-.99-1.394-1.918-1.71-2.412a.77.77,0,0,1-.093-.47,2.2,2.2,0,1,0-4.1.975,2.165,2.165,0,0,0,.862.838.986.986,0,0,1,.44.392c.321.63.778,1.577,1.21,2.645a9.7,9.7,0,0,0-.861.854c-.621-.269-2.127-.928-2.689-1.222A.77.77,0,0,1,6.09,8.36a2.2,2.2,0,1,0-1.877,3.191.909.909,0,0,1,.541.118,28.691,28.691,0,0,1,2.36,1.687A9.668,9.668,0,0,0,6.8,14.54c-1.246.177-2.355.247-2.939.275a.77.77,0,0,1-.454-.154A2.2,2.2,0,1,0,2.2,18.7Zm8.547,8.943a2.051,2.051,0,0,0-.3,1.21,1.077,1.077,0,0,1-.147.58A1.1,1.1,0,1,1,8.857,27.9a1.832,1.832,0,0,0,.843-.8c.306-.59.731-1.461,1.155-2.475a9.927,9.927,0,0,0,1.437.83C11.647,26.3,11.112,27.087,10.749,27.643Zm12.526-.589a2.055,2.055,0,0,0,.9.862,1.071,1.071,0,0,1,.428.417,1.1,1.1,0,1,1-2.051.487,1.834,1.834,0,0,0-.269-1.128c-.3-.462-.855-1.3-1.566-2.233a9.845,9.845,0,0,0,1.434-.835C22.558,25.6,22.974,26.465,23.274,27.054Zm5.753-11.143a2.04,2.04,0,0,0,1.2-.348,1.13,1.13,0,0,1,1.417.225,1.1,1.1,0,0,1-1.448,1.631,1.851,1.851,0,0,0-1.112-.33c-.547.025-1.556.089-2.716.24.023-.275.035-.55.035-.829s-.012-.555-.035-.829c1.049.136,2,.206,2.662.24ZM22.254,5.358a2.051,2.051,0,0,0,.3-1.21,1.077,1.077,0,0,1,.147-.58A1.1,1.1,0,1,1,24.146,5.1a1.836,1.836,0,0,0-.842.8c-.306.59-.731,1.461-1.152,2.475a9.927,9.927,0,0,0-1.437-.83c.641-.84,1.176-1.632,1.539-2.188ZM9.728,5.947a2.053,2.053,0,0,0-.9-.862A1.077,1.077,0,0,1,8.4,4.668a1.1,1.1,0,1,1,2.051-.483,1.834,1.834,0,0,0,.269,1.127c.357.559.9,1.362,1.567,2.235a9.907,9.907,0,0,0-1.436.832c-.407-.981-.823-1.842-1.124-2.431Zm-4.378,4.8a1.966,1.966,0,0,0-1.189-.294,1.065,1.065,0,0,1-.593-.145A1.1,1.1,0,1,1,5.1,8.856a1.839,1.839,0,0,0,.8.847c.568.3,1.97.912,2.755,1.253a1.1,1.1,0,0,0,1.262-.289,8.778,8.778,0,0,1,4.817-2.783,1.1,1.1,0,0,0,.884-.953c.1-.835.26-2.33.292-2.961a2.012,2.012,0,0,0-.347-1.189A1.075,1.075,0,0,1,15.4,2.2a1.1,1.1,0,1,1,2.016.613,1.828,1.828,0,0,0-.33,1.1c.029.636.2,2.164.293,3.018a1.1,1.1,0,0,0,.884.951,8.77,8.77,0,0,1,4.815,2.782,1.1,1.1,0,0,0,1.265.288c.77-.335,2.145-.942,2.714-1.23a2.045,2.045,0,0,0,.851-.892,1.086,1.086,0,0,1,.423-.434,1.1,1.1,0,0,1,1.279,1.778,1.129,1.129,0,0,1-.792.275,1.85,1.85,0,0,0-1.133.268c-.591.38-1.5.994-2.483,1.764a1.1,1.1,0,0,0-.356,1.224,8.825,8.825,0,0,1,0,5.587,1.105,1.105,0,0,0,.356,1.222c.754.592,1.578,1.177,2.45,1.74a1.984,1.984,0,0,0,1.187.3,1.052,1.052,0,0,1,.593.145,1.1,1.1,0,1,1-1.536,1.45,1.835,1.835,0,0,0-.8-.846c-.562-.293-1.967-.911-2.755-1.253a1.1,1.1,0,0,0-1.265.289,8.737,8.737,0,0,1-5.192,2.85.554.554,0,0,0-.46.472c-.205,1.325-.3,2.566-.34,3.375a2,2,0,0,0,.345,1.187,1.075,1.075,0,0,1,.167.582,1.1,1.1,0,1,1-2.014-.611,1.844,1.844,0,0,0,.33-1.1c-.03-.641-.2-2.164-.293-3.015a1.1,1.1,0,0,0-.883-.95,8.771,8.771,0,0,1-4.816-2.783,1.113,1.113,0,0,0-.832-.378,1.094,1.094,0,0,0-.434.09c-.77.335-2.145.942-2.714,1.23a2.045,2.045,0,0,0-.851.892,1.083,1.083,0,0,1-.423.434,1.1,1.1,0,0,1-1.28-1.779,1.124,1.124,0,0,1,.79-.275,1.862,1.862,0,0,0,1.132-.268c.59-.379,1.5-.994,2.483-1.764a1.1,1.1,0,0,0,.356-1.223,8.825,8.825,0,0,1,0-5.585A1.105,1.105,0,0,0,7.8,12.485c-.75-.591-1.574-1.176-2.447-1.741ZM1.116,16.31a1.107,1.107,0,0,1,1.692-.728,1.839,1.839,0,0,0,1.112.33c.66-.03,1.627-.1,2.715-.239-.023.275-.035.55-.035.828s.013.555.035.829c-1.049-.136-2-.206-2.662-.24a2.064,2.064,0,0,0-1.2.348,1.129,1.129,0,0,1-1.415-.222,1.1,1.1,0,0,1-.244-.906Z" transform="translate(-0.004 -0.003)" fill="#3b4157"/>
      </g>
    </g>
  </g>
</svg>
