<svg xmlns="http://www.w3.org/2000/svg" width="65" height="65" viewBox="0 0 65 65">
  <g id="Group_44247" data-name="Group 44247" transform="translate(3541 3308)">
    <rect id="Rectangle_5495" data-name="Rectangle 5495" width="65" height="65" rx="5" transform="translate(-3541 -3308)" fill="#e8c9fd"/>
    <path id="Path_29856" data-name="Path 29856" d="M-11491.236-184.812c.018.214.177,5.207,0,5.95s-2.024-1.6-2.024-1.6a4.176,4.176,0,0,0-4.9.246c-2.793,1.887-5.726,5.653-7.724,12.173s-1.389,12.6-.637,12.932a19.348,19.348,0,0,0,4.591.314c.343-.059,3.988.2,4.317,0s4.678-1.676,5.381-3.917,1.334-4.7,1.22-5.7-.4-4.182-.4-4.182a2.466,2.466,0,0,1,1.245-1.5c.934-.38,2.633.425,2.633.425a4.072,4.072,0,0,1,.66,1.634c-.046.544-.354,2.713-.31,3.254s-.465,5.364,2.6,8,5.868,1.99,5.868,1.99h5.207s2.395-.136,2.6-1.99a22.778,22.778,0,0,0-.559-5.359s-1.37-9.736-3.375-12-3.116-4.865-5.512-6.069-2.542-1.284-3.239-1.033a4.582,4.582,0,0,0-2.285,1.726,2.164,2.164,0,0,1-1.307,1.017v-6.3S-11491.254-185.027-11491.236-184.812Z" transform="translate(7981 -3106)" fill="#be59ff"/>
    <g id="Group_44207" data-name="Group 44207" transform="translate(-4255.121 -3500.982)">
      <path id="Path_24835" data-name="Path 24835" d="M748.165,225.881h-2.532c0,2.062-.081,3.886.016,5.7A8.891,8.891,0,0,1,736.265,241c-1.581-.095-3.175.021-4.761-.028-2.2-.068-3.64-1.42-3.526-3.582.338-6.4,1.483-12.611,4.9-18.192a15.124,15.124,0,0,1,4.918-5.083c2.047-1.273,4.045-1.733,6.028.268.949-1.875-.6-4.2.984-5.784l.505.025a6.117,6.117,0,0,1,.3,1.312c.026,2.991.071,5.985-.006,8.974a5.881,5.881,0,0,1-4.589,5.694,8.592,8.592,0,0,1-2.031.024l-.208-.446c.286-.28.525-.661.868-.817.489-.222,1.081-.213,1.581-.42a4.294,4.294,0,0,0,2.853-3.909,4.758,4.758,0,0,0-2.231-4.17,2.732,2.732,0,0,0-2.208.021,12.183,12.183,0,0,0-5.61,5.329,32.914,32.914,0,0,0-4.179,12.975,36.847,36.847,0,0,0-.364,4.008c-.039,1.535.652,2.236,2.211,2.276,1.891.048,3.789.077,5.676-.03a7.119,7.119,0,0,0,6.648-6.237,49.918,49.918,0,0,0,.031-5.142c-1.661.217-3.241.439-4.827.6-.1.01-.251-.46-.407-.763.272-.186.455-.415.658-.434a8.969,8.969,0,0,0,5.339-2.542,2.992,2.992,0,0,1,4.185-.037,8.594,8.594,0,0,0,5.328,2.539.957.957,0,0,1,.463.269,1.03,1.03,0,0,1,.179.307c-.836,1.191-1.113,1.18-5.231-.263-.062,2.83-.532,5.6,1.013,8.156a6.882,6.882,0,0,0,5.663,3.54c1.885.121,3.784.09,5.675.04,1.692-.045,2.292-.694,2.224-2.425a36.839,36.839,0,0,0-3.758-15.533,14.233,14.233,0,0,0-5.648-6.325c-2.035-1.13-3.012-.87-4.253,1.1a4.369,4.369,0,0,0,2.779,6.93c.543.137,1.073.329,1.581.488-.152,1.263-.907,1.126-1.551,1.056a6.006,6.006,0,0,1-5.01-4.492,15.9,15.9,0,0,1-.271-3.087c-.039-2.381-.033-4.762-.006-7.143.008-.708-.006-1.548,1.393-1.31v6.035c.547-.429.787-.59,1-.785a3.482,3.482,0,0,1,4.067-.6,14.348,14.348,0,0,1,6.74,6.484c3.1,5.439,4.218,11.409,4.47,17.572a3.2,3.2,0,0,1-3.365,3.53c-1.646.066-3.3.027-4.945.02-5.594-.022-9.272-3.656-9.364-9.27C748.141,229.891,748.165,228.064,748.165,225.881Z" transform="translate(0 0)" fill="#3b4157"/>
    </g>
  </g>
</svg>
