<svg xmlns="http://www.w3.org/2000/svg" width="65" height="65" viewBox="0 0 65 65">
  <g id="Group_44255" data-name="Group 44255" transform="translate(3237 2613)">
    <rect id="Rectangle_5481" data-name="Rectangle 5481" width="65" height="65" rx="5" transform="translate(-3237 -2613)" fill="#fcbaba"/>
    <path id="Path_29851" data-name="Path 29851" d="M-11200.017,514.477c-.137.5,0,8.868,0,8.868a46.345,46.345,0,0,0,.252,6.962c.4,1.656,1.274,5.932,2.558,6.931s7.838,5.763,9.12,6.175a47.609,47.609,0,0,0,9.867,1.858c3,.026,4.911,1.03,6.223-2.244s.28-9.739.254-9.858-2.585-10.649-2.585-10.649l3.172-.566s-.415-3.219-1.93-4.146-4.818,0-4.818,0a24.112,24.112,0,0,1,.319-5.349c.469-1.456-3.056-.8-3.056-.8s-.239,1.33-1.022,1.283-1.775-1.573-1.775-1.573h-3.132l-.907,1.089-1.724-.8a14.421,14.421,0,0,0-3.062,1.283,5.321,5.321,0,0,0-.493,2.155l-2.05,1.873-.755-2.855S-11199.88,513.973-11200.017,514.477Z" transform="translate(7981 -3106)" fill="#fa5858"/>
    <g id="Group_44194" data-name="Group 44194" transform="translate(-3627.121 -3051.984)">
      <path id="Path_24848" data-name="Path 24848" d="M432.848,471.1a16.831,16.831,0,0,0-8.824,5.051c-1.286-.862-.845-1.5-.2-2.126a17.072,17.072,0,0,1,8.58-4.562,21.966,21.966,0,0,1,3.459-.38,6.973,6.973,0,0,1,1.689.357c-.255,1.85-1.707.992-2.59,1.6a5.24,5.24,0,0,0,.2,1.006c2.109,5.4,2.483,11.055,2.433,16.752a5.082,5.082,0,0,1-4.913,5.331c-7.171.138-13.873-1.445-19.535-6.135a15.859,15.859,0,0,1-5.948-12.559c-.046-4.174-.026-8.349,0-12.524a13.17,13.17,0,0,1,.339-2.062c1.528.146,1.33,1.1,1.333,1.87.02,4.243-.008,8.487.021,12.73a13.845,13.845,0,0,0,4.945,10.855,24.962,24.962,0,0,0,5.107,3.379,28.509,28.509,0,0,0,12.921,2.8c2.454-.01,3.98-1.35,4.025-3.7a46.1,46.1,0,0,0-1.693-14.414C433.872,473.283,433.332,472.256,432.848,471.1Z" transform="translate(0 -1.8)" fill="#3b4157"/>
      <path id="Path_24849" data-name="Path 24849" d="M434.225,463.1c1.6.7,3.373-.541,4.832,1.412-.976.227-1.576.418-2.189.5-2.03.267-4.071.447-6.094.75a7.989,7.989,0,0,1-5.171-.793,2.647,2.647,0,0,0-3.5.543c.684,1.352,1.272,2.857.121,4.288a2.485,2.485,0,0,1-2.857,1.049,6.021,6.021,0,0,1,1.6-6.7,5.746,5.746,0,0,1,6.856-.845,4.031,4.031,0,0,0,4.216.271,16.762,16.762,0,0,1-.128-2.776,14.433,14.433,0,0,1,.745-2.979c.278-.827.145-1.976,1.733-2.3a8.556,8.556,0,0,1,.1,1.9,17.908,17.908,0,0,1-.791,2.969A2.386,2.386,0,0,0,434.225,463.1Z" transform="translate(-2.668 -0.593)" fill="#3b4157"/>
      <path id="Path_24850" data-name="Path 24850" d="M415.942,455.583c2.419,2.142,2.656,5.258,1.009,7.228a9.651,9.651,0,0,0-2.235,5.168,7.839,7.839,0,0,1-.516,1.542l-.558.016a4.73,4.73,0,0,1-.606-1.287c-.392-2.894-.03-7.526.64-8.585,1.561.253.76,1.631,1.2,2.553a2.315,2.315,0,0,0,1.4-2.9,17.621,17.621,0,0,1-.541-2.177A6.084,6.084,0,0,1,415.942,455.583Z" transform="translate(-1.291 -0.608)" fill="#3b4157"/>
      <path id="Path_24851" data-name="Path 24851" d="M433.451,453.666c.206.4.645.853.575,1.2a16.024,16.024,0,0,1-1.086,3.725,2.215,2.215,0,0,1-3.649.347c-.912-1.049-.827-4.655.255-6.039,1.713,1.324,0,3.6,1.608,5.286l1.771-4.469Z" transform="translate(-4.867 0)" fill="#3b4157"/>
      <path id="Path_24852" data-name="Path 24852" d="M420.741,453.734c1.682.908.715,3.12,2.415,3.806,1.326-1.279-.262-3.321,1.173-4.463.155,0,.248-.029.288,0,1.464,1.26,1.1,5.239-.562,6.037a1.949,1.949,0,0,1-2.728-.588,17.959,17.959,0,0,1-1.225-4.043C420.059,454.316,420.48,454.03,420.741,453.734Z" transform="translate(-2.927 -0.038)" fill="#3b4157"/>
    </g>
  </g>
</svg>
